<svg width="100%" viewBox="0 0 680 480" xmlns="http://www.w3.org/2000/svg" role="img">
<title>Illustration conceptuelle de PharmaConnect</title>
<desc>Application mobile de santé</desc>
<defs>
<linearGradient id="bgGrad" x1="0" y1="0" x2="1" y2="1">
<stop offset="0%" stop-color="#0D2B2B"/>
<stop offset="100%" stop-color="#16403D"/>
</linearGradient>
<linearGradient id="phoneGrad" x1="0" y1="0" x2="0" y2="1">
<stop offset="0%" stop-color="#1A4A47"/>
<stop offset="100%" stop-color="#0D2B2B"/>
</linearGradient>
</defs>
<rect x="0" y="0" width="680" height="480" rx="16" fill="url(#bgGrad)"/>
<circle cx="120" cy="100" r="140" fill="#1F5E59" opacity="0.35"/>
<circle cx="560" cy="380" r="160" fill="#2C7A6E" opacity="0.25"/>
<circle cx="540" cy="90" r="70" fill="#4DD0C7" opacity="0.15"/>
<g opacity="0.5">
<line x1="60" y1="240" x2="220" y2="240" stroke="#4DD0C7" stroke-width="1"/>
<line x1="460" y1="240" x2="620" y2="240" stroke="#4DD0C7" stroke-width="1"/>
<circle cx="60" cy="240" r="4" fill="#4DD0C7"/>
<circle cx="620" cy="240" r="4" fill="#4DD0C7"/>
</g>
<rect x="250" y="80" width="180" height="340" rx="32" fill="url(#phoneGrad)" stroke="#2C7A6E" stroke-width="2"/>
<rect x="262" y="100" width="156" height="280" rx="8" fill="#0A1F1F"/>
<rect x="305" y="88" width="70" height="10" rx="5" fill="#1A4A47"/>
<circle cx="340" cy="155" r="28" fill="#009688"/>
<path d="M340 142 L340 168 M327 155 L353 155" stroke="white" stroke-width="5" stroke-linecap="round"/>
<text x="340" y="210" text-anchor="middle" font-family="Georgia, serif" font-style="italic" font-size="17" fill="#4DD0C7">PharmaConnect</text>
<rect x="280" y="230" width="120" height="34" rx="8" fill="#1A4A47"/>
<rect x="280" y="272" width="120" height="34" rx="8" fill="#1A4A47"/>
<rect x="280" y="314" width="120" height="34" rx="8" fill="#009688"/>
<g opacity="0.9">
<circle cx="540" cy="200" r="46" fill="#2C7A6E"/>
<rect x="520" y="180" width="40" height="4" rx="2" fill="white" opacity="0.9"/>
<rect x="520" y="192" width="28" height="4" rx="2" fill="white" opacity="0.6"/>
<rect x="520" y="204" width="34" height="4" rx="2" fill="white" opacity="0.6"/>
<circle cx="528" cy="216" r="3" fill="#4DD0C7"/>
<circle cx="540" cy="216" r="3" fill="#4DD0C7"/>
<circle cx="552" cy="216" r="3" fill="#4DD0C7"/>
</g>
<g opacity="0.85">
<rect x="90" y="320" width="92" height="78" rx="10" fill="#1F5E59"/>
<rect x="104" y="334" width="64" height="6" rx="3" fill="#4DD0C7"/>
<rect x="104" y="350" width="44" height="6" rx="3" fill="#4DD0C7" opacity="0.6"/>
<g transform="translate(104,366)">
<rect width="14" height="14" rx="3" fill="#0D2B2B"/>
<rect width="14" height="14" rx="3" fill="#0D2B2B" x="20"/>
<rect width="14" height="14" rx="3" fill="#009688" x="40"/>
</g>
</g>
<line x1="182" y1="350" x2="250" y2="270" stroke="#4DD0C7" stroke-width="1" stroke-dasharray="3 4" opacity="0.5"/>
<line x1="498" y1="220" x2="430" y2="180" stroke="#4DD0C7" stroke-width="1" stroke-dasharray="3 4" opacity="0.5"/>
</svg>
